<svg xmlns="http://www.w3.org/2000/svg" width="139.391" height="29.265" viewBox="0 0 139.391 29.265">
  <g id="Grupo_1118" data-name="Grupo 1118" transform="translate(19199.391 -1505.277)">
    <g id="Grupo_546" data-name="Grupo 546" transform="translate(-19199.391 1505.277)">
      <path id="Trazado_5121" data-name="Trazado 5121" d="M0,0V16.381H0a12.41,12.41,0,0,0,24.813,0h0V0Z" fill="#64b356" fill-rule="evenodd"/>
      <g id="Grupo_517" data-name="Grupo 517" transform="translate(2.982 2.647)">
        <path id="Trazado_5122" data-name="Trazado 5122" d="M14.868,3.24v7.974h7.639v3.4H14.868v8.039H11.289V14.6H3.65V11.214h7.639V3.24Z" transform="translate(-3.65 -3.24)" fill="#fff"/>
      </g>
      <g id="Grupo_518" data-name="Grupo 518" transform="translate(30.924 2.516)">
        <path id="Trazado_5123" data-name="Trazado 5123" d="M45.8,5.784c-1.634-.114-2.01.523-2.01,2.01V9.551h1.928v2.533H43.79V24.257H39.7V12.108H37.85V9.551h1.863c0-4.224-.384-6.471,4.632-6.471a12.3,12.3,0,0,1,1.454.057Z" transform="translate(-37.85 -3.08)" fill="#f05b14"/>
        <path id="Trazado_5124" data-name="Trazado 5124" d="M60.82,22.938c0,.9.114,1.838.2,2.737H57.209l-.172-1.953h-.065a4.085,4.085,0,0,1-3.848,2.247c-2.86,0-3.913-2.132-3.913-4.69,0-4.9,3.758-5.074,7.582-5.016V15.127c0-1.258-.172-2.157-1.634-2.157s-1.536,1.078-1.536,2.247H49.569a4.024,4.024,0,0,1,1.52-3.587,6.373,6.373,0,0,1,3.848-.964c5.213,0,5.891,2.247,5.891,4.9ZM53.246,21.1c0,1.054.172,2.337,1.511,2.337,2.451,0,2.043-3.268,2.043-4.9-2.043.09-3.554-.09-3.554,2.533Z" transform="translate(-39.929 -4.465)" fill="#f05b14"/>
        <path id="Trazado_5125" data-name="Trazado 5125" d="M70.4,10.934v1.9h.057a3.729,3.729,0,0,1,3.815-2.19v3.677c-3.611-.237-3.668,1.863-3.668,3.317V25.64H66.52V10.934Z" transform="translate(-43.096 -4.463)" fill="#f05b14"/>
        <path id="Trazado_5126" data-name="Trazado 5126" d="M82.085,12.45h.057a4.085,4.085,0,0,1,6.765.09,4.363,4.363,0,0,1,3.8-1.871c1.953,0,3.677,1.168,3.677,3.2V25.645H92.3V15.538c0-1.307-.229-2.328-1.544-2.328s-1.552,1-1.552,2.328V25.645h-4.02V15.538c0-1.307-.237-2.328-1.544-2.328s-1.552,1-1.552,2.328V25.645H78V10.938h4.085Z" transform="translate(-45.197 -4.468)" fill="#f05b14"/>
        <path id="Trazado_5127" data-name="Trazado 5127" d="M115.192,22.938c0,.9.114,1.838.2,2.737h-3.815l-.172-1.953h-.057a4.085,4.085,0,0,1-3.848,2.247c-2.86,0-3.905-2.132-3.905-4.69,0-4.9,3.758-5.074,7.574-5.016V15.127c0-1.258-.172-2.157-1.634-2.157s-1.544,1.078-1.544,2.247h-4.061a4.021,4.021,0,0,1,1.511-3.587,6.405,6.405,0,0,1,3.848-.964c5.213,0,5.891,2.247,5.891,4.9ZM107.61,21.1c0,1.054.172,2.337,1.52,2.337,2.451,0,2.043-3.268,2.043-4.9C109.129,18.657,107.61,18.477,107.61,21.1Z" transform="translate(-49.88 -4.465)" fill="#f05b14"/>
        <path id="Trazado_5128" data-name="Trazado 5128" d="M128.118,16.211c0-2.19-.556-2.917-1.838-2.917-1.748,0-1.9,1.544-1.9,4.608,0,4.485.384,5.449,1.9,5.449,1.283,0,1.9-1.168,1.9-3.088h4.085c0,3.987-2.157,5.719-6.005,5.719-5.3,0-6.005-3.268-6.005-7.843,0-4.02.58-7.459,6.005-7.459,3.791,0,5.948,1.691,5.948,5.539Z" transform="translate(-52.928 -4.471)" fill="#f05b14"/>
        <path id="Trazado_5129" data-name="Trazado 5129" d="M142.015,3.29V6.558H137.93V3.29Zm0,21.038H137.93V9.589h4.085Z" transform="translate(-56.164 -3.118)" fill="#f05b14"/>
        <path id="Trazado_5130" data-name="Trazado 5130" d="M145.135,10.072h1.634V7.76l4.085-1.83v4.142h2.124V12.6h-2.124v7.868c0,1.1,0,1.838,1.307,1.838a2.712,2.712,0,0,0,.727-.065v2.533a15.384,15.384,0,0,1-2.124.147c-3.554,0-4.02-2.361-4.02-3.268V12.629H145.11Z" transform="translate(-57.478 -3.602)" fill="#f05b14"/>
        <path id="Trazado_5131" data-name="Trazado 5131" d="M159.415,25.861,155.42,11h4.085l2.108,10.368h.057L163.868,11h3.962l-5.719,20.278H157.8Z" transform="translate(-59.364 -4.529)" fill="#f05b14"/>
      </g>
    </g>
  </g>
</svg>
